<svg id="SvgjsSvg1001" width="288" height="288" xmlns="http://www.w3.org/2000/svg" version="1.1" xmlns:xlink="http://www.w3.org/1999/xlink" xmlns:svgjs="http://svgjs.com/svgjs"><circle id="SvgjsCircle1013" r="144" cx="144" cy="144" transform="matrix(0.7916,0,0,0.7916,30.009600000000006,30.009600000000006)" fill="#ffffff"></circle><defs id="SvgjsDefs1002"></defs><g id="SvgjsG1008" transform="matrix(0.4652,0,0,0.4652,77.06644081039428,77.12611577835084)"><svg xmlns="http://www.w3.org/2000/svg" viewBox="0 0 512 512" width="288" height="288"><path d="M0 0 C2.2623148 -0.00219476 4.5241476 -0.02041588 6.78637695 -0.03930664 C8.23884926 -0.04223988 9.69132386 -0.04422514 11.14379883 -0.04516602 C12.45034424 -0.0492749 13.75688965 -0.05338379 15.10302734 -0.05761719 C19.55476835 0.24282928 23.22412041 0.89777536 26.63989258 3.87280273 C28.26434101 7.40836696 27.80336045 9.49382222 26.70239258 13.18530273 C22.64652115 16.97481843 18.26538526 19.79217343 13.51489258 22.62280273 C6.90700642 26.65226987 0.61473814 31.02519648 -5.61010742 35.62280273 C-6.42825928 36.22600342 -7.24641113 36.8292041 -8.08935547 37.45068359 C-11.35546255 39.88558033 -14.47381704 42.23757049 -17.29760742 45.18530273 C-16.20448242 45.02674805 -15.11135742 44.86819336 -13.98510742 44.70483398 C12.48191404 41.43134253 36.90893573 47.29883813 58.32739258 63.56030273 C75.39985066 77.36157815 75.39985066 77.36157815 76.07739258 83.68530273 C75.68857836 87.31423546 75.29466861 88.68903693 72.70239258 91.18530273 C69.74476489 92.17117863 67.50106392 92.40821779 64.40478516 92.57421875 C63.32389114 92.63420547 62.24299713 92.6941922 61.12934875 92.7559967 C59.96364853 92.81645676 58.7979483 92.87691681 57.59692383 92.93920898 C56.40258224 93.00438217 55.20824066 93.06955536 53.97770691 93.13670349 C50.15696755 93.3442962 46.3359477 93.54611395 42.51489258 93.74780273 C39.92698144 93.88739692 37.3390905 94.02736612 34.7512207 94.16772461 C28.40183945 94.51127196 22.05221829 94.85007639 15.70239258 95.18530273 C16.17942627 96.23806396 16.65645996 97.2908252 17.14794922 98.37548828 C23.73842735 113.06695141 23.73842735 113.06695141 25.13989258 119.99780273 C25.29256592 120.72499512 25.44523926 121.4521875 25.60253906 122.20141602 C26.69824127 127.9653621 27.14396289 133.69886886 27.26489258 139.56030273 C27.29188232 140.36314697 27.31887207 141.16599121 27.34667969 141.99316406 C27.3209273 145.8073788 27.04403011 147.78373964 24.54223633 150.72436523 C21.08236211 152.50427302 19.54046509 152.92522965 15.70239258 152.18530273 C13.03971469 150.56625265 10.78112244 148.5592344 8.45239258 146.49780273 C7.02726589 145.2921174 5.59876003 144.09041708 4.16723633 142.89233398 C3.43102051 142.27438965 2.69480469 141.65644531 1.9362793 141.01977539 C-14.08331113 127.86445271 -31.93787815 116.46411292 -50.61010742 107.49780273 C-51.4632251 107.08763916 -52.31634277 106.67747559 -53.1953125 106.25488281 C-58.17274718 103.94581444 -62.93213464 102.33989814 -68.29760742 101.18530273 C-70.9060377 105.28956075 -70.9060377 105.28956075 -70.66699219 109.95727539 C-70.19575928 110.91166504 -69.72452637 111.86605469 -69.23901367 112.84936523 C-68.7149292 113.95223877 -68.19084473 115.0551123 -67.65087891 116.19140625 C-67.21447586 117.07156906 -67.21447586 117.07156906 -66.76925659 117.96951294 C-65.18238964 121.18250436 -63.68583413 124.43746274 -62.18041992 127.68920898 C-61.86026413 128.3767778 -61.54010834 129.06434662 -61.21025085 129.77275085 C-57.57375824 137.64068916 -54.36397554 145.66678263 -51.23510742 153.74780273 C-50.94489716 154.49733215 -50.65468689 155.24686157 -50.35568237 156.019104 C-27.50812911 215.326934 -11.98875634 277.1026192 -4.29760742 340.18530273 C-4.19230713 341.03326416 -4.08700684 341.88122559 -3.97851562 342.75488281 C-3.48104784 346.94172171 -3.18164026 351.02389709 -3.23510742 355.24780273 C-3.24413086 356.1875293 -3.2531543 357.12725586 -3.26245117 358.09545898 C-3.27985352 359.12993164 -3.27985352 359.12993164 -3.29760742 360.18530273 C-2.35401367 360.26006836 -1.41041992 360.33483398 -0.43823242 360.41186523 C9.9954223 361.48037204 17.87375375 364.29954351 26.70239258 370.18530273 C26.15939874 359.1524619 24.13483991 348.4011859 22.13989258 337.56030273 C21.96287811 336.59199524 21.78586365 335.62368774 21.60348511 334.6260376 C18.24264421 316.31887752 14.28125492 298.22361604 9.70239258 280.18530273 C9.52514648 279.48294495 9.34790039 278.78058716 9.1652832 278.0569458 C-1.38997629 236.25088275 -14.55260106 195.41399384 -32.25439453 156.05810547 C-34.12213282 151.85970411 -34.90875744 148.81258144 -34.29760742 144.18530273 C-32.79760742 141.74780273 -32.79760742 141.74780273 -30.29760742 140.18530273 C-27.49291787 139.57608738 -25.05023934 139.31972903 -22.29760742 140.18530273 C-17.97215799 144.38939687 -15.85949679 149.99235623 -13.48510742 155.43530273 C-12.78212524 157.04671143 -12.78212524 157.04671143 -12.06494141 158.69067383 C14.77805331 221.52837488 31.67279772 288.45114214 42.70239258 355.74780273 C42.91049561 357.01438721 43.11859863 358.28097168 43.33300781 359.5859375 C44.21215274 365.17569587 44.96839077 370.52452863 44.70239258 376.18530273 C54.3904138 375.92931843 61.40169031 371.99312077 69.58227539 367.17236328 C75.66575963 363.606121 80.5020234 361.18530273 87.70239258 361.18530273 C87.93893555 360.14736572 88.17547852 359.10942871 88.41918945 358.04003906 C90.75210756 347.9042395 93.33227264 337.86930978 96.20239258 327.87280273 C96.41448364 327.13296143 96.62657471 326.39312012 96.84509277 325.63085938 C107.79159852 287.60530655 121.33648443 250.71167959 138.37133789 214.97827148 C139.66660483 212.26039662 140.94869887 209.53673987 142.22583008 206.81030273 C144.04309919 202.93135454 145.86913216 199.05671738 147.70239258 195.18530273 C135.34067654 203.27445845 123.4149705 211.57220989 112.37036133 221.43530273 C109.10182842 223.57923061 106.57412675 223.94388872 102.70239258 224.18530273 C100.01042333 223.38498755 99.06972947 222.79048366 97.61645508 220.39624023 C92.84459614 208.85405151 99.03120206 190.74044228 103.51879883 179.82202148 C104.52674381 177.57659949 105.59398667 175.38195109 106.70239258 173.18530273 C105.66236084 173.14771851 105.66236084 173.14771851 104.60131836 173.109375 C96.63427682 172.81895796 88.66819976 172.50771181 80.70239258 172.18530273 C79.74494141 172.14791992 78.78749023 172.11053711 77.80102539 172.07202148 C75.35093848 171.9734705 72.90174049 171.86310015 70.45239258 171.74780273 C69.74614746 171.72081299 69.03990234 171.69382324 68.31225586 171.66601562 C63.31042069 171.41146775 58.63635092 170.86971806 54.76489258 167.49780273 C53.10839597 163.89248658 53.56485083 161.97710855 54.70239258 158.18530273 C64.55913333 142.30686713 85.24754376 132.47678882 102.61645508 127.87670898 C109.54866039 126.323544 115.99312565 126.0633863 123.07739258 126.12280273 C124.61073242 126.12957031 124.61073242 126.12957031 126.17504883 126.13647461 C128.68422452 126.14819973 131.19327747 126.16461097 133.70239258 126.18530273 C124.00077969 119.03629504 114.25780578 112.05510769 104.01123047 105.70166016 C100.85692342 103.71944119 98.79664212 102.32667704 96.70239258 99.18530273 C96.09105465 95.16793918 96.33520744 93.68600974 98.76489258 90.37280273 C107.87040305 83.59210345 127.41818937 86.57470689 138.21899414 87.95483398 C155.65337374 90.58262453 173.32354707 97.06398707 184.70239258 111.18530273 C191.03166049 120.39266833 194.93516104 128.94395546 194.70239258 140.18530273 C195.51321289 139.59362305 196.3240332 139.00194336 197.15942383 138.39233398 C212.53054222 127.34485388 226.48179332 122.29167313 245.70239258 125.18530273 C262.74822019 128.66206014 277.64761214 137.96945711 290.70239258 149.18530273 C291.50676758 149.87076172 291.50676758 149.87076172 292.32739258 150.57006836 C300.95844696 158.07037163 300.95844696 158.07037163 302.52270508 162.51733398 C302.70059938 165.71350162 301.84060406 167.94493494 300.26489258 170.68530273 C294.17965469 174.2473932 286.09256352 171.88517643 279.44750977 170.97241211 C270.24553791 169.76825616 260.96933824 169.51780983 251.70239258 169.18530273 C252.95342773 170.00321289 252.95342773 170.00321289 254.22973633 170.83764648 C275.12465622 184.72709905 285.87069562 202.85797868 291.70239258 227.18530273 C292.44437249 231.59813061 292.88294316 235.8991024 292.95239258 240.37280273 C292.97817383 241.37698242 293.00395508 242.38116211 293.03051758 243.41577148 C292.65199327 246.61069693 291.96871357 247.92940161 289.70239258 250.18530273 C286.27349031 251.05811422 283.80979681 251.51453102 280.38989258 250.49780273 C277.26778834 248.06949944 276.47930144 244.85797208 275.99145508 241.06030273 C275.8295166 239.88588623 275.8295166 239.88588623 275.66430664 238.68774414 C275.553125 237.86193848 275.44194336 237.03613281 275.32739258 236.18530273 C272.63617853 218.06240713 266.03438593 200.79147439 251.13989258 189.18920898 C238.92925571 180.93638029 225.37027592 176.63410879 210.70239258 177.18530273 C218.14385923 182.98350116 225.66326437 188.66134593 233.26489258 194.24780273 C234.07603516 194.84455811 234.88717773 195.44131348 235.72290039 196.05615234 C240.20384982 199.35178199 240.20384982 199.35178199 244.69067383 202.6394043 C246.3853191 203.87954353 248.07563199 205.12534469 249.76489258 206.37280273 C250.68399414 207.04698242 251.6030957 207.72116211 252.55004883 208.41577148 C255.37554696 210.73873093 256.58614506 212.42139046 257.13989258 216.06030273 C256.70239258 219.18530273 256.70239258 219.18530273 254.57739258 222.06030273 C251.22129503 224.54089657 249.77692557 224.71676356 245.70239258 224.18530273 C244.71239258 223.85530273 243.72239258 223.52530273 242.70239258 223.18530273 C242.40848633 224.44020508 242.40848633 224.44020508 242.10864258 225.72045898 C238.70536088 238.96685284 232.85333932 250.89917526 223.70239258 261.18530273 C223.21254883 261.74862305 222.72270508 262.31194336 222.21801758 262.89233398 C220.70239258 264.18530273 220.70239258 264.18530273 217.26489258 264.62280273 C213.07008762 264.10765125 212.30473001 263.39175421 209.70239258 260.18530273 C208.77856445 257.66845703 208.77856445 257.66845703 208.17114258 254.82202148 C207.93266602 253.76031738 207.69418945 252.69861328 207.44848633 251.60473633 C207.07916992 249.9121167 207.07916992 249.9121167 206.70239258 248.18530273 C206.13631305 245.85680701 205.56324378 243.53000082 204.98364258 241.20483398 C204.5447168 239.42882812 204.5447168 239.42882812 204.09692383 237.61694336 C203.80172852 236.42262695 203.5065332 235.22831055 203.20239258 233.99780273 C202.90719727 232.79188477 202.61200195 231.5859668 202.30786133 230.34350586 C200.84679959 224.45098596 199.31950331 218.66700703 197.2355957 212.96142578 C196.70239258 211.18530273 196.70239258 211.18530273 196.70239258 208.18530273 C196.04239258 208.18530273 195.38239258 208.18530273 194.70239258 208.18530273 C194.58935791 208.88502197 194.47632324 209.58474121 194.35986328 210.30566406 C193.62902794 213.50663058 192.50130095 216.25213938 191.18286133 219.25952148 C190.66119385 220.46664795 190.13952637 221.67377441 189.60205078 222.91748047 C189.18398666 223.881241 189.18398666 223.881241 188.75747681 224.86447144 C181.20535091 242.34654442 174.74795034 260.13380079 168.70239258 278.18530273 C168.37301697 279.16282501 168.37301697 279.16282501 168.0369873 280.16009521 C162.18128682 297.55509955 157.28641477 315.13199952 152.82739258 332.93530273 C152.48331863 334.30534454 152.48331863 334.30534454 152.1322937 335.70306396 C149.45657362 346.41149885 147.01502296 357.1355118 144.95144653 367.97991943 C143.79919983 373.99168822 143.79919983 373.99168822 142.70239258 376.18530273 C152.69839961 375.83678902 159.31708608 373.28860512 167.57519531 367.90454102 C178.76020195 360.66217831 191.49035723 358.80142726 204.63989258 360.87280273 C213.1679907 362.80870631 220.38880555 367.0184838 227.83056641 371.45532227 C235.49525971 375.9741157 243.95253276 376.51373092 252.70239258 375.18530273 C257.7030832 373.37920779 262.13162823 370.88129731 266.70239258 368.18530273 C276.86505371 362.54362494 286.96830048 358.41179006 298.70239258 361.18530273 C300.70239258 362.24780273 300.70239258 362.24780273 301.70239258 364.18530273 C302.47283358 371.11927175 302.47283358 371.11927175 300.12426758 374.36889648 C296.92602662 376.7675772 294.47454153 376.87343073 290.51489258 377.31030273 C283.70026613 378.28089462 278.63922875 380.54171355 272.82739258 384.18530273 C259.46025655 392.48809335 247.44306987 393.63546112 231.81958008 391.85717773 C225.16586431 390.23432023 219.13594352 386.23904777 213.2956543 382.76586914 C204.74822057 377.76189884 196.12860622 375.69391383 186.32739258 378.06030273 C180.22371151 380.00324469 174.77742784 383.34231784 169.29858398 386.60473633 C157.67815037 393.39880803 144.39630123 393.82479466 131.26098633 391.60327148 C124.56628962 389.60852512 118.94409932 386.00188028 113.06103516 382.34619141 C104.13809563 376.87647664 96.0516311 376.24166526 85.70239258 378.18530273 C81.18954599 379.81566639 77.26657023 382.20554311 73.21411133 384.74389648 C60.31456969 392.7885562 47.75535386 393.55718451 32.81958008 391.85717773 C26.16586431 390.23432023 20.13594352 386.23904777 14.2956543 382.76586914 C5.27868602 377.48701669 -2.93565642 376.13462559 -13.29760742 378.18530273 C-17.51985043 379.8172462 -21.35859397 381.96745621 -25.29760742 384.18530273 C-27.78404734 385.48353243 -30.28968004 386.74171396 -32.79760742 387.99780273 C-33.94229492 388.58174805 -35.08698242 389.16569336 -36.26635742 389.76733398 C-45.63087455 394.14790063 -60.40969132 394.02094927 -70.11010742 390.74780273 C-75.45359032 388.38712528 -80.46951542 385.27502352 -85.51733398 382.34399414 C-93.8452405 377.58433369 -102.07748497 375.76661713 -111.61010742 378.06030273 C-117.74641738 379.99262768 -123.19955723 383.32840779 -128.70117188 386.60473633 C-140.32216045 393.39838839 -153.60324894 393.82487074 -166.73901367 391.60327148 C-173.33584515 389.63768496 -178.70837446 386.10947661 -184.42700195 382.40551758 C-190.38878895 378.7349631 -196.04273749 377.71331439 -202.93432617 376.91577148 C-206.71374835 376.09492137 -208.05486015 375.29836984 -210.29760742 372.18530273 C-211.12648593 368.78494286 -210.92473745 365.40036717 -209.29760742 362.24780273 C-202.57074877 358.67415908 -194.2981039 360.21380253 -187.29760742 362.18530273 C-181.41494358 364.7083414 -175.79454202 367.6890978 -170.30541992 370.97827148 C-161.49496018 376.00429256 -152.57370746 377.05629989 -142.69995117 374.51733398 C-140.42007722 373.56980016 -138.40577954 372.47113821 -136.29760742 371.18530273 C-121.05240804 362.12058959 -106.974551 357.43685221 -89.16479492 361.75561523 C-81.42064112 364.31762215 -74.32555658 368.93542134 -67.36547852 373.10961914 C-60.5580794 376.65075261 -50.91347481 376.22802386 -43.58276367 374.57202148 C-37.74795005 372.36819005 -32.35549161 369.05015703 -27.02978516 365.82788086 C-22.6094613 363.18530273 -22.6094613 363.18530273 -19.29760742 363.18530273 C-24.00652299 313.99531128 -32.76813649 265.47819644 -47.29760742 218.18530273 C-47.5322168 217.42044556 -47.76682617 216.65558838 -48.00854492 215.86755371 C-57.32088123 185.60705562 -67.92299131 155.91446303 -81.29760742 127.18530273 C-88.81080328 145.65180245 -94.05107797 164.85916534 -97.52441406 184.48217773 C-98.50116531 189.67487446 -99.29488807 193.42399252 -103.29760742 197.18530273 C-106.19935439 198.30135926 -107.70183699 198.35274148 -110.68823242 197.51342773 C-120.80704287 192.36313499 -128.3378508 175.12903841 -131.87182617 164.77905273 C-133.10838588 160.93974805 -134.21479212 157.07042544 -135.29760742 153.18530273 C-135.62760742 152.19530273 -135.95760742 151.20530273 -136.29760742 150.18530273 C-144.25119593 155.8163915 -152.14306872 161.52475902 -159.98510742 167.31030273 C-160.79931152 167.90746094 -161.61351562 168.50461914 -162.45239258 169.11987305 C-165.89922103 171.65169472 -169.33153215 174.18678629 -172.67260742 176.85717773 C-180.06572212 182.64845091 -180.06572212 182.64845091 -184.73510742 182.99780273 C-188.29760742 182.18530273 -188.29760742 182.18530273 -190.79760742 180.31030273 C-194.13820424 173.35072602 -192.19355361 164.87748437 -190.67260742 157.56030273 C-190.49439453 156.69711426 -190.31618164 155.83392578 -190.13256836 154.94458008 C-185.8928137 135.47829534 -177.48021443 119.20031616 -163.29760742 105.18530273 C-162.64147461 104.51885742 -161.9853418 103.85241211 -161.30932617 103.16577148 C-155.46185561 97.61881333 -148.33787739 93.99219029 -141.29760742 90.18530273 C-155.95415062 90.47898527 -170.4248055 90.95521922 -184.92285156 93.25683594 C-196.05720013 94.96230028 -196.05720013 94.96230028 -201.23510742 92.12280273 C-203.0587231 88.7973859 -203.15594177 85.78120345 -202.29760742 82.18530273 C-200.46734575 78.99560758 -197.97488256 76.68092108 -195.29760742 74.18530273 C-194.8304834 73.7417041 -194.36335937 73.29810547 -193.88208008 72.84106445 C-174.1177327 54.27226817 -149.57227236 40.98158807 -121.95385742 41.84155273 C-106.82417619 42.70681228 -94.03727199 49.7930979 -83.29760742 60.18530273 C-82.87801758 58.35418945 -82.87801758 58.35418945 -82.44995117 56.48608398 C-77.8609738 37.31196961 -70.48924924 22.88184795 -53.29760742 12.18530273 C-36.58406053 2.88104931 -19.01015186 -0.00206744 0 0 Z M-51.29760742 31.18530273 C-51.90217773 31.68545898 -52.50674805 32.18561523 -53.12963867 32.70092773 C-60.55136717 39.36269711 -65.26404787 49.28035699 -66.29760742 59.18530273 C-66.42921742 62.52725654 -66.42318571 65.84352506 -66.29760742 69.18530273 C-63.22251047 66.11965685 -60.16540627 63.03811213 -57.12611389 59.93685913 C-54.95033448 57.72004385 -52.76577585 55.51195428 -50.58105469 53.30395508 C-49.44707484 52.15501423 -48.31581661 51.00337987 -47.1875 49.84887695 C-39.05873135 41.53734539 -30.59027812 34.16776192 -21.29760742 27.18530273 C-19.89349223 26.11039473 -18.48973938 25.03501287 -17.08666992 23.95874023 C-15.47102732 22.73404325 -13.85519259 21.50958556 -12.23510742 20.29077148 C-10.90494744 19.27840834 -9.59824784 18.23532141 -8.29760742 17.18530273 C-8.29760742 16.85530273 -8.29760742 16.52530273 -8.29760742 16.18530273 C-22.94570441 15.39902317 -40.40926835 21.64324419 -51.29760742 31.18530273 Z M-168.29760742 73.18530273 C-168.29760742 73.51530273 -168.29760742 73.84530273 -168.29760742 74.18530273 C-167.37351074 74.1748291 -166.44941406 74.16435547 -165.49731445 74.15356445 C-140.22173666 73.90622509 -115.38989231 74.90024037 -90.29760742 78.18530273 C-96.64694629 68.2483293 -105.96100329 62.21613937 -117.09057617 58.60327148 C-135.50530245 55.11588084 -153.48503624 62.64000319 -168.29760742 73.18530273 Z M-50.29760742 82.18530273 C-40.62507204 82.32601875 -31.01236591 81.88220893 -21.36010742 81.34545898 C-19.74692017 81.25794064 -18.13372002 81.17065996 -16.52050781 81.08360291 C-13.15865927 80.90149864 -9.79693894 80.71723202 -6.43530273 80.53125 C-2.1592647 80.29475472 2.11699705 80.0626454 6.39335632 79.83203983 C9.71886771 79.65239777 13.04427816 79.47094156 16.36965942 79.288908 C17.94505504 79.20278006 19.52047362 79.117071 21.09591675 79.03181648 C29.97733088 78.54966932 38.84315231 77.99091225 47.70239258 77.18530273 C37.03864328 66.25337178 20.41241838 60.24859961 5.26953125 59.89257812 C-15.59929694 59.72359131 -35.43687122 67.0448789 -50.29760742 82.18530273 Z M-24.29760742 96.44311523 C-27.30370187 96.64747692 -30.29897657 96.89326216 -33.29760742 97.18530273 C-30.18914408 99.67532835 -26.87297876 101.67266006 -23.45776367 103.70141602 C-13.51806862 109.61213638 -4.15631505 116.13985824 5.10864258 123.05297852 C6.71475856 124.25543034 6.71475856 124.25543034 8.70239258 125.18530273 C8.27605424 117.79543827 5.84340887 111.841473 2.70239258 105.18530273 C2.35047852 104.27135742 1.99856445 103.35741211 1.63598633 102.41577148 C0.26406903 99.54063126 -0.68514252 98.03636861 -3.29760742 96.18530273 C-10.34948899 95.07067446 -17.22194672 96.0062145 -24.29760742 96.44311523 Z M-153.12182617 118.00952148 C-153.83983398 118.7275293 -154.5578418 119.44553711 -155.29760742 120.18530273 C-155.86092773 120.74862305 -156.42424805 121.31194336 -157.00463867 121.89233398 C-164.96966962 130.52987414 -170.39963178 141.84999175 -173.29760742 153.18530273 C-172.96760742 154.17530273 -172.63760742 155.16530273 -172.29760742 156.18530273 C-171.36303711 155.48147461 -170.4284668 154.77764648 -169.46557617 154.05249023 C-159.59559693 146.62928662 -149.67109482 139.28281545 -139.72094727 131.9675293 C-137.32499541 130.20544502 -134.93019023 128.44181613 -132.53588867 126.67749023 C-131.36110962 125.81184448 -131.36110962 125.81184448 -130.16259766 124.92871094 C-128.59275407 123.7714638 -127.02325222 122.61375293 -125.45410156 121.45556641 C-121.33071247 118.41342727 -117.19934906 115.3830113 -113.05541992 112.36889648 C-112.19625977 111.74176758 -111.33709961 111.11463867 -110.4519043 110.46850586 C-108.81257069 109.27223539 -107.1707878 108.07931129 -105.52612305 106.89038086 C-101.43899573 103.90213426 -97.7570763 100.88596964 -94.29760742 97.18530273 C-116.48864588 97.18530273 -136.69304831 102.41921395 -153.12182617 118.00952148 Z M132.70239258 104.18530273 C136.14931604 107.77796009 139.68423318 110.77938748 143.70239258 113.74780273 C154.94520253 122.2258025 164.83477106 132.17535975 174.70239258 142.18530273 C176.36790224 143.8531256 178.03423715 145.52012616 179.70239258 147.18530273 C179.2321457 134.81780977 175.7412505 125.02467885 166.77270508 116.31030273 C157.9443131 108.80778647 144.47858321 103.4255485 132.70239258 104.18530273 Z M-103.07104492 123.92358398 C-104.18479492 124.78306641 -104.18479492 124.78306641 -105.32104492 125.65991211 C-106.09706055 126.26641602 -106.87307617 126.87291992 -107.67260742 127.49780273 C-109.20121413 128.68144702 -110.72985874 129.86504235 -112.25854492 131.04858398 C-112.9370752 131.57750244 -113.61560547 132.1064209 -114.31469727 132.65136719 C-115.69393329 133.71831375 -117.09771315 134.75396783 -118.51904297 135.76416016 C-120.45309162 137.02027702 -120.45309162 137.02027702 -120.79370117 139.06030273 C-120.49507978 149.89030517 -116.62900332 159.37546142 -112.29760742 169.18530273 C-110.66057202 166.16332125 -109.6657155 163.24107604 -108.78198242 159.92358398 C-108.36348022 158.37973022 -108.36348022 158.37973022 -107.93652344 156.8046875 C-107.64318115 155.71341553 -107.34983887 154.62214355 -107.04760742 153.49780273 C-104.70284283 144.91523177 -102.17564865 136.47856949 -99.07592773 128.13769531 C-97.74635787 124.75364236 -97.74635787 124.75364236 -97.29760742 121.18530273 C-100.02261341 121.18530273 -100.93016987 122.25990422 -103.07104492 123.92358398 Z M208.70239258 150.18530273 C206.93451724 152.12272516 205.32665841 154.12149544 203.70239258 156.18530273 C204.97211914 156.0525293 206.2418457 155.91975586 207.55004883 155.78295898 C212.93189709 155.22641559 218.31646992 154.7007564 223.70239258 154.18530273 C224.90637695 154.06799805 226.11036133 153.95069336 227.35083008 153.82983398 C240.75565755 152.73133862 254.26293899 153.09732162 267.70239258 153.18530273 C250.02779182 138.80680591 227.20334799 135.34419364 208.70239258 150.18530273 Z M82.70239258 154.18530273 C82.37239258 154.84530273 82.04239258 155.50530273 81.70239258 156.18530273 C91.21248916 156.70940499 100.72271168 157.23114331 110.23310089 157.74990845 C114.64968671 157.9908944 119.06622577 158.23267811 123.48266602 158.47631836 C127.74897654 158.71164646 132.01539921 158.94483539 136.28190613 159.17657471 C137.90533068 159.26512312 139.52871419 159.3544274 141.15205383 159.44451904 C143.43500363 159.57108488 145.71808783 159.69490207 148.0012207 159.81811523 C149.94647644 159.92470459 149.94647644 159.92470459 151.93103027 160.03344727 C155.86313208 160.19177498 159.76774071 160.21096499 163.70239258 160.18530273 C160.57339067 156.73261097 157.11176815 154.4365138 153.07739258 152.18530273 C152.45711182 151.8364502 151.83683105 151.48759766 151.19775391 151.12817383 C128.04291261 138.33184118 104.92089359 140.12373086 82.70239258 154.18530273 Z M122.26489258 178.06030273 C121.3497396 179.73675688 120.49678503 181.44836747 119.70239258 183.18530273 C119.08557617 184.53108398 119.08557617 184.53108398 118.45629883 185.90405273 C116.31977742 190.87589593 116.31977742 190.87589593 115.70239258 196.18530273 C118.80730851 194.71804199 121.59712328 192.99082469 124.44067383 191.06811523 C125.34366211 190.4609668 126.24665039 189.85381836 127.17700195 189.22827148 C129.05726018 187.95751197 130.93746914 186.68667956 132.81762695 185.41577148 C137.6885986 182.14076141 142.55633999 179.01030816 147.70239258 176.18530273 C147.70239258 175.85530273 147.70239258 175.52530273 147.70239258 175.18530273 C145.08924071 174.9022534 142.47891139 174.65246661 139.85864258 174.44311523 C137.81265315 174.27599234 135.76958973 174.06502026 133.73364258 173.80249023 C128.3289458 173.34220012 125.50060931 173.44249594 122.26489258 178.06030273 Z M175.70239258 180.18530273 C174.15028462 182.2089021 174.15028462 182.2089021 172.85473633 184.67358398 C172.07948608 186.05694946 172.07948608 186.05694946 171.28857422 187.46826172 C170.74450928 188.46801025 170.20044434 189.46775879 169.63989258 190.49780273 C168.77835571 192.05833374 168.77835571 192.05833374 167.89941406 193.65039062 C166.71810312 195.7990743 165.54275089 197.95104441 164.37329102 200.10620117 C162.89495859 202.83044555 161.39834314 205.54363179 159.89770508 208.25561523 C136.84159429 250.50175957 121.16693855 297.32683018 108.51489258 343.62280273 C108.317948 344.34220032 108.12100342 345.0615979 107.91809082 345.80279541 C107.36787066 347.82335914 106.82438508 349.84556964 106.28442383 351.86889648 C105.97738525 353.0193042 105.67034668 354.16971191 105.35400391 355.35498047 C104.59021455 358.18849594 104.59021455 358.18849594 104.70239258 361.18530273 C105.54801758 361.48823242 106.39364258 361.79116211 107.26489258 362.10327148 C113.96239774 364.57678191 119.75464369 367.25754403 125.70239258 371.18530273 C126.36239258 371.18530273 127.02239258 371.18530273 127.70239258 371.18530273 C127.92789795 370.11610596 128.15340332 369.04690918 128.38574219 367.9453125 C140.3737361 311.32491738 156.61282235 256.46929999 180.29223633 203.54858398 C180.89914307 202.19192627 180.89914307 202.19192627 181.51831055 200.80786133 C182.30441839 199.06675402 183.10026064 197.33000745 183.90600586 195.59790039 C184.45683838 194.40173096 184.45683838 194.40173096 185.01879883 193.18139648 C185.34436768 192.4858667 185.66993652 191.79033691 186.00537109 191.07373047 C187.10868365 188.08454566 186.77617552 186.13820583 185.70239258 183.18530273 C183.89150413 180.31564526 183.89150413 180.31564526 181.70239258 178.18530273 C179.11967997 178.18530273 177.89437496 178.81808338 175.70239258 180.18530273 Z M209.70239258 198.18530273 C209.96455566 199.05743408 210.22671875 199.92956543 210.49682617 200.828125 C211.47750941 204.09135824 212.45776682 207.35471879 213.43774414 210.61816406 C213.8604274 212.02544119 214.28327596 213.43266868 214.70629883 214.83984375 C215.3174205 216.87283224 215.92792995 218.90600376 216.53833008 220.93920898 C216.90490723 222.15938721 217.27148438 223.37956543 217.64916992 224.63671875 C218.69092385 228.14666158 219.70284032 231.66316503 220.70239258 235.18530273 C224.41520452 231.47249079 225.27422136 226.12806814 226.70239258 221.18530273 C227.04657227 220.25588867 227.39075195 219.32647461 227.74536133 218.36889648 C228.62290372 215.03811403 228.83526128 213.47471668 227.70239258 210.18530273 C223.2720759 205.350535 217.45801191 201.30241678 211.70239258 198.18530273 C211.04239258 198.18530273 210.38239258 198.18530273 209.70239258 198.18530273 Z " transform="translate(210.298 43.815)" fill="#8f7575" class="color000 svgShape"></path><path d="M0 0 C15.69624804 9.8695213 33.09914587 12.75685769 51.4375 8.93359375 C59.35758392 6.89281272 65.91478375 3.14971819 72.77392578 -1.20581055 C78.47185507 -4.76110485 82.56046506 -6.10043994 89.12890625 -4.82421875 C94.41633041 -3.32534894 98.82871792 -0.62600723 103.46484375 2.26171875 C117.51004161 10.71546343 135.89986874 12.50984428 151.8125 8.75 C160.08382586 5.95708477 168.26224348 1.64040075 175.6796875 -2.9453125 C179.60338657 -5.21264034 183.560002 -5.64012998 187.9609375 -4.91796875 C192.2941368 -3.66955631 195.98583111 -1.69051145 199.84692383 0.62329102 C215.38860633 9.92525367 232.54589936 12.67500796 250.4453125 8.9375 C258.35568268 6.88918623 264.9231053 3.157471 271.76953125 -1.20800781 C277.98569778 -5.0997816 282.25577117 -6.09275411 289.31640625 -4.4765625 C293.02793343 -3.21936775 295.65645539 -1.64945641 298.875 0.5625 C309.02126502 7.13695706 320.08124889 10.25890563 332.16796875 10.4140625 C335.4606622 10.81345832 337.27911442 11.79408936 339.9375 13.75 C341.9375 16.75 341.9375 16.75 341.75 20.25 C340.67146542 24.89599511 340.67146542 24.89599511 337.9375 26.75 C335.27181083 27.08509796 332.91451523 27.22546704 330.25 27.1875 C329.49468994 27.17847656 328.73937988 27.16945313 327.96118164 27.16015625 C312.62217017 26.70003384 298.65225605 21.22650403 285.9375 12.75 C281.29038376 13.03048438 278.35353697 14.48563545 274.5 17 C256.67857198 27.81300127 232.96546599 30.15324039 212.8125 25.25 C206.05562741 23.09058711 199.7497604 19.97041824 193.49609375 16.65234375 C192.89192627 16.33700684 192.28775879 16.02166992 191.6652832 15.69677734 C190.02855294 14.79989449 188.45249009 13.79480821 186.8828125 12.78515625 C183.87962011 11.36609835 183.87962011 11.36609835 180.74609375 13.03125 C179.60933573 13.75059813 178.48607932 14.49159163 177.375 15.25 C176.14501375 16.02007549 174.91052316 16.78299824 173.671875 17.5390625 C173.05119141 17.91836914 172.43050781 18.29767578 171.79101562 18.68847656 C154.9239524 28.34838053 131.96749652 29.8647074 113.3125 25.25 C103.22144966 22.26441883 93.87705516 17.23680154 84.9375 11.75 C83.95652344 12.34167969 82.97554687 12.93335938 81.96484375 13.54296875 C61.45142428 25.65126429 38.08143471 31.1371182 14.375 25.25 C7.34226799 23.18676947 0.90416365 20.09901292 -5.5390625 16.65234375 C-6.13630127 16.33700684 -6.73354004 16.02166992 -7.34887695 15.69677734 C-8.98576673 14.79239516 -10.56761409 13.79046592 -12.14453125 12.78515625 C-15.09707573 11.36537568 -15.09707573 11.36537568 -18.03515625 13.03125 C-19.05480469 13.7634375 -20.07445312 14.495625 -21.125 15.25 C-33.05864543 23.34148432 -45.65056453 26.79432305 -59.9375 27.1875 C-60.67581055 27.22206299 -61.41412109 27.25662598 -62.17480469 27.29223633 C-66.01304493 27.32171387 -67.70350697 27.07884431 -70.57421875 24.44921875 C-72.60042001 20.77440228 -72.16930841 18.73451028 -71.0625 14.75 C-69.16716125 12.16544715 -68.17423483 11.78724494 -65.0625 10.75 C-63.14708132 10.5415331 -61.23122027 10.33603076 -59.31298828 10.15527344 C-45.65591996 8.83371725 -35.07425721 4.2542657 -23.3828125 -2.88671875 C-15.08726845 -7.76070002 -7.44444152 -4.76648109 0 0 Z " transform="translate(121.063 441.25)" fill="#8f7575" class="color000 svgShape"></path></svg></g></svg>